<?xml version="1.0" encoding="utf-8"?>
<!-- Generator: Adobe Illustrator 19.0.0, SVG Export Plug-In . SVG Version: 6.00 Build 0)  -->
<svg version="1.1" id="Layer_1" xmlns="http://www.w3.org/2000/svg" xmlns:xlink="http://www.w3.org/1999/xlink" x="0px" y="0px"
	 viewBox="0 0 100 55" enable-background="new 0 0 100 55" xml:space="preserve">
<g id="XMLID_1_">
	<path id="XMLID_2_" fill="#0066CC" d="M22.9,47.5L22.9,47.5c-0.4,0.8-0.6,1.6-0.7,2.3c-0.1,0.7,0,1.2,0.2,1.5
		c0.2,0.3,0.1,0.5-0.4,0.6c-0.5,0.1-1.1,0.1-1.7-0.2c-0.7-0.4-1.3-0.9-1.6-1.6c-0.4-0.7-0.5-1.5-0.4-2.5c0.1-1,0.7-2.6,1.9-4.9
		c1.2-2.3,2.3-4.3,3.3-6.1c1-1.7,2.1-3.5,3.3-5.3c1.2-1.8,2.4-3.5,3.6-5.2s2.3-3.2,3.4-4.6s2.1-2.7,2.9-3.8c0.8-1.1,1.4-2,1.8-2.6
		c0.4-0.7,0.5-1,0.4-1.1c-0.4-0.2-1-0.1-1.9,0.4C36,15,35,15.7,33.7,16.7c-1.2,1-2.6,2.2-4.1,3.6c-1.5,1.4-3,2.9-4.6,4.5
		s-3.2,3.2-4.8,4.9c-1.6,1.7-3.1,3.4-4.5,5c-1.4,1.6-2.8,3.1-4,4.6c-1.2,1.4-2.6,3.2-4,5.4c-0.4,0.6-0.7,1.3-1,2.1
		c-0.3,0.7-0.5,1.4-0.6,2.1c-0.1,0.6-0.2,1.2-0.2,1.6c0,0.4,0.1,0.7,0.2,0.8c0.1,0.1,0.2,0.2,0.1,0.3c-0.1,0.1-0.2,0.2-0.4,0.3
		c-0.2,0.1-0.5,0.1-0.7,0.1c-0.3,0-0.6,0-0.9-0.1c-1-0.4-1.7-1.2-2-2.3c-0.3-1.2-0.1-2.6,0.5-4.2c0.5-1.3,1.3-2.8,2.4-4.6
		c1.1-1.8,2.3-3.7,3.7-5.7c1.4-2,2.9-4.2,4.4-6.4s3.2-4.4,4.7-6.6c1.6-2.2,3-4.3,4.4-6.3c1.4-2,2.6-3.9,3.6-5.7
		c0.4-0.6,0.7-1.2,0.9-1.8c0.3-0.6,0.4-1.1,0.6-1.5c0.1-0.5,0.2-0.9,0.1-1.2c0-0.3-0.2-0.6-0.5-0.6c-0.2-0.1-0.5-0.2-1-0.2
		c-0.4,0-1,0-1.6,0.1c-0.6,0.1-1.3,0.3-2.1,0.5s-1.6,0.6-2.4,0.9c-1.4,0.8-2.9,1.6-4.4,2.6c-1.5,1-3,2.1-4.5,3.4s-2.8,2.7-4,4.3
		C5.9,18.3,4.9,20,4,22c-0.2,0.4-0.3,0.7-0.3,0.9c-0.1,0.3-0.1,0.4-0.1,0.5c0,0.1,0,0.2,0,0.3c0,0.1-0.1,0.2-0.1,0.3
		c0,0.1-0.1,0.1-0.2,0.1c-0.1,0-0.1-0.1-0.2-0.3c-0.2-0.4-0.4-1-0.6-1.7c-0.2-0.7-0.3-1.6-0.3-2.5c0-0.9,0.2-1.9,0.6-3
		c0.4-1.1,1-2.2,1.9-3.2c1.2-1.4,2.7-2.8,4.2-4.1c1.6-1.3,3.2-2.4,5-3.3c1.7-0.9,3.5-1.7,5.4-2.3c1.8-0.6,3.6-0.9,5.4-1
		c1.1-0.1,2,0,2.8,0.2c0.8,0.2,1.5,0.5,2,0.8c0.6,0.4,1,0.8,1.3,1.2c0.3,0.5,0.5,0.9,0.6,1.4c0.2,0.9,0,2.1-0.7,3.6
		c-0.7,1.6-1.6,3.4-2.9,5.4c-1.2,2-2.7,4.2-4.3,6.5s-3.3,4.7-5,7c2.3-2.6,4.5-5,6.6-7c2.1-2,4-3.8,5.9-5.2c1.8-1.5,3.5-2.6,4.9-3.5
		s2.7-1.5,3.8-1.8c0.8-0.2,1.5-0.2,2.1,0c0.6,0.2,1.1,0.6,1.4,1.1c0.3,0.5,0.5,1.1,0.6,1.9c0,0.8-0.1,1.5-0.5,2.4
		c-0.5,1.2-1.3,2.5-2.2,4c-0.9,1.5-2,3.1-3.2,4.8c-1.2,1.7-2.4,3.5-3.8,5.3c-1.3,1.8-2.7,3.7-4,5.6c-1.3,1.9-2.5,3.7-3.6,5.6
		C25.3,43.8,24.1,45.6,22.9,47.5z"/>
	<path id="XMLID_4_" fill="#0066CC" d="M46.7,28.7c0.9,0.1,1.5,0.5,1.8,1.3c0.2-0.5,0.3-0.9,0.2-1.2c-0.1-0.3,0-0.4,0.3-0.5
		c0.3,0,0.6,0,0.9,0.1c0.4,0.1,0.8,0.3,1.2,0.5c0.4,0.2,0.8,0.5,1.2,0.9c0.3,0.4,0.6,0.7,0.7,1.2c0.1,0.4,0.1,0.9-0.1,1.3
		c-0.1,0.3-0.5,0.8-1,1.5c-0.5,0.7-1.1,1.6-1.8,2.5c-0.7,0.9-1.4,1.9-2.2,3c-0.7,1.1-1.4,2-1.9,2.9c-0.5,0.9-0.9,1.6-1.2,2.3
		c-0.2,0.6-0.2,1,0.2,1c0.4,0.1,0.9-0.2,1.8-0.8s1.7-1.4,2.7-2.4c1-1,2-2,3.1-3.2c1.1-1.2,2-2.2,2.9-3.2c0.2-0.3,0.4-0.4,0.6-0.5
		s0.4,0,0.5,0.1c0.1,0.1,0.2,0.2,0.3,0.5c0,0.2,0,0.5-0.2,0.7c-0.8,1.1-1.7,2.2-2.8,3.5c-1.1,1.3-2.2,2.4-3.3,3.6
		c-1.2,1.1-2.3,2-3.5,2.8c-1.2,0.8-2.2,1.2-3.2,1.2c-0.7,0-1.2-0.1-1.6-0.3c-0.4-0.2-0.7-0.5-1-0.8c-0.2-0.4-0.4-0.7-0.5-1.2
		c-0.1-0.4-0.1-0.8-0.1-1.2c-0.8,0.9-1.7,1.7-2.5,2.4c-0.8,0.6-1.7,1-2.5,1c-1,0-1.8-0.2-2.4-0.8c-0.6-0.6-0.9-1.4-1-2.5
		c0-1.1,0.2-2.4,0.7-3.8c0.5-1.5,1.5-3.1,2.8-5c0.7-1,1.5-1.9,2.3-2.7c0.8-0.9,1.7-1.6,2.6-2.3c0.9-0.6,1.8-1.1,2.8-1.5
		C44.6,28.8,45.6,28.6,46.7,28.7z M36,45.7c0.5,0,1-0.3,1.6-0.7c0.6-0.4,1.2-1,1.8-1.7s1.3-1.4,2-2.3c0.7-0.9,1.4-1.8,2.2-2.8
		c0.5-0.8,1-1.7,1.6-2.5c0.5-0.8,1-1.7,1.5-2.4c0.2-0.3,0.3-0.6,0.5-1s0.2-0.6,0.3-0.9c0.1-0.3,0.1-0.5,0-0.7
		c-0.1-0.2-0.3-0.3-0.6-0.3c-0.4,0-0.8,0.2-1.4,0.6c-0.6,0.4-1.2,0.9-1.9,1.5c-0.7,0.6-1.4,1.3-2.2,2.1c-0.8,0.8-1.4,1.6-2.1,2.4
		c-0.8,1-1.5,2.1-2,3.1c-0.6,1-1,2-1.2,2.8c-0.3,0.8-0.4,1.5-0.4,2.1C35.5,45.5,35.7,45.7,36,45.7z"/>
	<path id="XMLID_7_" fill="#0066CC" d="M53.8,45.6c-0.6,1-1.1,1.6-1.2,1.8c-0.2,0.2-0.4,0.4-0.6,0.4c-0.6,0-1.1-0.2-1.4-0.6
		c-0.3-0.4-0.5-0.8-0.6-1.3c-0.1-0.5-0.1-1-0.1-1.5c0.1-0.5,0.2-0.9,0.3-1.1c0.6-1,1.3-2.2,2.3-3.6c1-1.4,1.9-2.9,2.8-4.4
		c0.9-1.5,1.7-2.9,2.4-4.2c0.7-1.3,1.1-2.2,1.2-2.8c0-0.3,0.2-0.4,0.5-0.4c0.3,0,0.6,0,1,0.2s0.8,0.3,1.2,0.6c0.4,0.3,0.8,0.6,1.1,1
		c0.3,0.4,0.5,0.7,0.6,1.1c0.1,0.4,0,0.8-0.1,1.2c-0.1,0.2-0.4,0.6-0.7,1.1c-0.3,0.5-0.7,1.1-1.2,1.7c0.8-0.9,1.6-1.7,2.4-2.4
		c0.8-0.8,1.6-1.5,2.4-2.1c0.8-0.6,1.6-1,2.4-1.3c0.8-0.3,1.6-0.4,2.4-0.4c1.7,0.1,2.5,1.1,2.5,2.8c0,0.8-0.3,1.7-0.8,2.8
		s-1.2,2.2-2,3.4c-0.8,1.2-1.5,2.3-2.3,3.3c-0.8,1.1-1.3,1.9-1.7,2.6c-0.4,0.6-0.6,1.1-0.6,1.4c0,0.3,0.1,0.5,0.3,0.6
		c0.2,0.1,0.5,0,0.9-0.2c0.4-0.2,0.8-0.4,1.2-0.8c0.4-0.4,1-1,1.8-1.7c0.7-0.7,1.5-1.4,2.3-2.2s1.6-1.6,2.4-2.4
		c0.8-0.8,1.4-1.5,2-2.2c0.2-0.3,0.4-0.4,0.6-0.5c0.2,0,0.4,0,0.5,0.1c0.1,0.1,0.2,0.2,0.3,0.5c0,0.2,0,0.5-0.2,0.7
		C76.9,37.9,76,39,75,40.3c-1.1,1.3-2.2,2.4-3.3,3.6c-1.2,1.1-2.3,2-3.5,2.8c-1.2,0.8-2.2,1.2-3.2,1.2c-1.4,0.1-2.4-0.3-3-1.1
		c-0.6-0.8-0.8-1.9-0.5-3.1c0.1-0.5,0.4-1.1,0.8-1.9c0.4-0.8,1-1.6,1.5-2.5c0.6-0.9,1.2-1.8,1.8-2.7c0.6-0.9,1.1-1.8,1.5-2.5
		s0.7-1.4,0.8-1.8c0.1-0.5,0-0.7-0.3-0.7c-0.4,0-1.1,0.3-1.9,0.9c-0.8,0.6-1.7,1.4-2.7,2.3c-1,0.9-1.9,1.9-2.9,2.9
		c-1,1-1.8,2-2.5,2.9L53.8,45.6z"/>
	<path id="XMLID_9_" fill="#0066CC" d="M74.8,45.6c-0.6,1-1.1,1.6-1.2,1.8c-0.2,0.2-0.4,0.4-0.6,0.4c-0.6,0-1.1-0.2-1.4-0.6
		c-0.3-0.4-0.5-0.8-0.6-1.3s-0.1-1-0.1-1.5c0.1-0.5,0.2-0.9,0.3-1.1c0.6-1,1.3-2.2,2.3-3.6c1-1.4,1.9-2.9,2.8-4.4s1.7-2.9,2.4-4.2
		s1.1-2.2,1.2-2.8c0-0.3,0.2-0.4,0.5-0.4c0.3,0,0.6,0,1,0.2c0.4,0.1,0.8,0.3,1.2,0.6c0.4,0.3,0.8,0.6,1.1,1c0.3,0.4,0.5,0.7,0.6,1.1
		c0.1,0.4,0,0.8-0.1,1.2c-0.1,0.2-0.4,0.6-0.7,1.1c-0.3,0.5-0.7,1.1-1.2,1.7c0.8-0.9,1.6-1.7,2.4-2.4c0.8-0.8,1.6-1.5,2.4-2.1
		c0.8-0.6,1.6-1,2.4-1.3c0.8-0.3,1.6-0.4,2.4-0.4c1.7,0.1,2.5,1.1,2.5,2.8c0,0.8-0.3,1.7-0.8,2.8c-0.6,1.1-1.2,2.2-2,3.4
		c-0.8,1.2-1.5,2.3-2.3,3.3c-0.8,1.1-1.3,1.9-1.7,2.6c-0.4,0.6-0.6,1.1-0.6,1.4c0,0.3,0.1,0.5,0.3,0.6c0.2,0.1,0.5,0,0.9-0.2
		c0.4-0.2,0.8-0.4,1.2-0.8c0.4-0.4,1-1,1.8-1.7s1.5-1.4,2.3-2.2c0.8-0.8,1.6-1.6,2.4-2.4c0.8-0.8,1.4-1.5,2-2.2
		c0.2-0.3,0.4-0.4,0.6-0.5s0.4,0,0.5,0.1c0.1,0.1,0.2,0.2,0.3,0.5c0,0.2,0,0.5-0.2,0.7C98,37.9,97.1,39,96,40.3
		c-1.1,1.3-2.2,2.4-3.3,3.6c-1.2,1.1-2.3,2-3.5,2.8c-1.2,0.8-2.2,1.2-3.2,1.2c-1.4,0.1-2.4-0.3-3-1.1c-0.6-0.8-0.8-1.9-0.5-3.1
		c0.1-0.5,0.4-1.1,0.8-1.9c0.4-0.8,1-1.6,1.5-2.5c0.6-0.9,1.2-1.8,1.8-2.7c0.6-0.9,1.1-1.8,1.5-2.5c0.4-0.8,0.7-1.4,0.8-1.8
		c0.1-0.5,0-0.7-0.3-0.7c-0.4,0-1.1,0.3-1.9,0.9c-0.8,0.6-1.7,1.4-2.7,2.3c-1,0.9-1.9,1.9-2.9,2.9s-1.8,2-2.5,2.9L74.8,45.6z"/>
</g>
</svg>
